<svg version="1" xmlns="http://www.w3.org/2000/svg" width="800" height="800" viewBox="0 0 600.000000 600.000000"><path d="M276.5 71.5c-18 1.8-25.9 3.4-48 10.2-7.4 2.3-27.7 10.6-30 12.3-.5.4-4.4 2.5-8.5 4.6-11.3 5.9-32.2 20.3-41 28.4-14.1 13-23.5 23.1-31.6 34-6.5 8.8-11.4 16-11.4 16.9 0 .4-.8 1.6-1.7 2.7-1 1.1-2.7 3.7-3.8 5.9-1.1 2.2-3.3 6.5-5 9.5-6.7 12.2-12.9 28.5-18.3 48.5-9.1 33.4-8.9 82.5.5 114.5 5.6 19.1 11.5 35.2 15.4 42.4.6 1 3.1 5.7 5.5 10.3 6.5 12.3 19.7 31.3 27.4 39.6 3.6 3.8 3.6 3.8 5.8 1.9 1.2-1.1 2.2-2.3 2.2-2.8.1-1.4 6.4-5.1 9.9-5.9 9.6-2.1 16.4-9.6 22.5-25.1 5.6-14.3 13.8-21.4 24.7-21.4 3.1 0 9-.3 13.2-.6l7.7-.7v-12.1c0-6.7-.5-16.4-1-21.6-3.1-31.3-5.3-43.3-8.5-47.6-1.2-1.6-1.7-1.7-3.2-.6-4.3 3-7.7 4-10.3 3-5.6-2.1-10-8.5-10-14.7 0-2-.5-6.3-1-9.6-.6-3.3-1.5-11.2-2-17.5-.6-6.3-1.8-14.4-2.6-18-2.6-10.6.3-23.6 6-27.1 4.3-2.6 5.3-2.4 9 1.6 3.3 3.6 6.6 4.6 6.6 2.1 0-.8-.7-2.2-1.6-3.1-.9-.8-1.8-3.3-2.1-5.5-.6-4.2-1.2-4.7-3.1-2.8-.7.7-1.2.8-1.2.4 0-.5-.7-.3-1.5.4-1.5 1.3-1.5-4.3 0-38 .6-12.8 3.5-27.5 6.6-33 2-3.5 2.7-4 5.4-3.8 2.3.2 3.2-.2 4-2 .8-1.8 1.5-2.1 4-1.7 2.6.5 2.7.4 1.1-.6-1.8-1.1-1.8-1.2.5-3 1.4-1.1 1.8-1.9 1-1.9-.9 0-.7-.7.8-2.3 4.4-4.7 6.1-7.1 6.1-8.4 0-.7.4-1.3 1-1.3.5 0 .7-.7.4-1.5-.4-.9 0-1.5.9-1.5.8 0 1.7-.3 1.9-.8.5-1.2 7.6-6.2 8.7-6.2.6 0 1.8-1.2 2.8-2.8 1.9-3 4.9-6.2 5.8-6.2.4 0 2.5-1.3 4.8-2.8 4.7-3.1 16.8-8.2 19.5-8.2 1 0 2.2-.4 2.8-.9.5-.4 4.7-1.8 9.4-3.1 15.9-4.1 43.4-3.6 60.5 1.1 16.3 4.6 27.9 9.6 36.5 15.8 3 2.2 7.2 5 9.3 6.3 2 1.3 3.9 3 4.2 3.8.3.8 2 3.1 3.8 5 3.1 3.3 5.7 7 8.3 11.5.6 1.1 3.5 5.8 6.3 10.4 2.8 4.7 5.8 10.8 6.7 13.5 5.4 17.7 8 32.9 6.9 40.8-.6 3.9-.4 4.9.9 5.4.9.3 1.6 1.1 1.6 1.6 0 .6-.6.6-1.4-.1-1.8-1.5-2.7-.1-2.4 3.7.2 2.3.6 2.8 2 2.4 1.2-.3 1.8.1 1.8 1.2 0 .9-.8 1.6-1.7 1.6-1.4 0-1.5.2-.4.9 1.6 1 .6 3.1-1.4 3.1-1.6 0-1.2 5.7.5 7.4.8.8.9.6.5-.6-.4-.9-.1-2.5.5-3.5 1-1.6 1.1-1.6.7.4-.3 1.3-.1 2.3.5 2.3s.8 1.5.5 3.7c-.3 2.1-.3 3-.1 2 .3-.9 1-1.7 1.5-1.7s.9-.9.9-1.9c0-2.4 2.3-3.3 5.4-2.1 2.4.9 3.6 2.9 3.6 6.1 0 1.6-.5 1.8-2.5 1.3-3.4-.8-7.2 1.8-8 5.5-.4 2.1.1 4.5 2 8.5 1.5 3.1 3.1 5.6 3.6 5.6s.9 5.2.9 11.8c0 8.6.5 13.9 2 19.3 2.6 9.8 2.6 16.9 0 20-1.2 1.5-2.2 2-2.7 1.4-.5-.6-2.4-1.2-4.4-1.3-3.5-.3-3.5-.3-4.7 4.8-.7 2.8-1.2 6.4-1.2 7.8 0 5.4-4.8 25.2-6.1 25.2-.4 0-.5.8-.2 1.8.2 1-.3 2.4-1.1 3.1-1.9 1.6-2.1.4-.5-3.6 1.5-3.5 2-10.3.9-10.3-.5 0-.6-2.2-.3-4.9.5-4.3.3-4.9-1.6-5.4-1.7-.4-2.1-1.1-1.6-2.9 1.5-5.8 1.2-8-1.4-10.7-2.8-2.8-5.5-4.7-8.3-5.7-1-.3-1.8-1-1.8-1.5s-.7-.9-1.5-.9-1.5-.5-1.5-1c0-.6-.4-1-1-1-1.6 0-1.2 3 .5 3.6 1.3.5 1.2.9-.6 2.5-1.1 1-2.7 1.5-3.4 1.3-1.5-.6-1.6-4.2-.2-6.1.6-.9.2-1.1-1.7-.7-3.6.6-3.3-.4.4-1.3 2.1-.6 2.7-1.2 2.1-2.2-1.2-1.8-8.5.4-7.7 2.4.2.7-.2 1.6-1 1.9-.9.3-1.2.1-.9-.4.3-.6-.2-1-1.2-1-1.5 0-1.6-.2-.3-1 .9-.6 1-1 .3-1-.6 0-1.4-.9-1.8-2-.3-1.1-1.8-2.5-3.3-3.2-1.5-.7-2.7-2-2.7-2.8 0-.8-1-2.2-2.3-3.1-1.2-.8-1.9-1.9-1.5-2.2.3-.4.1-.7-.6-.7s-2-.9-2.9-1.9c-1-1-3.1-2.1-4.9-2.5-3-.5-3.1-.4-2.7 2.2.3 1.5 1.2 4.2 2.1 6.1.8 1.9 1.8 5.2 2.1 7.5.5 3.8.4 4-1.2 2.7-1.4-1.2-2.3-1.2-5.9-.1-2.3.8-4.6 1.4-5.2 1.5-.5.1-1.8.5-2.8.9-.9.5-2.6.6-3.7.3-1.2-.3-2.4.1-2.9 1.1-.5.8-1.8 1.6-3 1.7-1.2.1-3.5 1.2-5.2 2.4-3.5 2.6-7.7 2.3-13.2-.9-3.8-2.2-14.7-3.9-14.7-2.2 0 2.4 11.9 7.3 15.3 6.4.5-.1.6.2.3.7-.4.5-.2 1.2.3 1.5.5.4 1.2.2 1.6-.4.9-1.5 2.5-1.2 2.5.5 0 .8-.5 1.5-1.1 1.5-.6 0-.8.7-.5 1.6.5 1.3.2 1.5-1.4 1.1-1.1-.3-1.8-.1-1.4.4.3.5 1.1.9 1.7.9 1.8 0 4.8 3.8 3.7 4.5-1.2.8-1.2 1.6-.1 3.4 1.1 1.6 5.3 2.1 6.3.6.5-.6.8-.6.8.2 0 .7.5 1.3 1.1 1.3 1.2 0 4.1-2.7 3.7-3.4-.2-.2.1-.8.5-1.2.4-.5 1 .2 1.3 1.4.4 1.2 1.5 2.4 2.5 2.7 3.1 1 2.2 2.3-2.3 3.6-2.4.6-4.8 1.5-5.3 1.9-.6.5-2.8.5-4.8 0-3.6-.8-12 0-20.2 1.9-15.7 3.6-15.1 3.6-19.4 1.6-2.3-1-4.1-2.2-4.1-2.7s-.4-.6-1-.3c-.5.3-1 .1-1-.4 0-.6-.7-1.1-1.6-1.1-1.1 0-1.5.6-1.2 1.8.4 1.5 0 1.7-2.9 1.4-3.9-.5-4.7-1.4-3.4-3.9.5-1 1.2-2.6 1.5-3.6.3-1 1.9-2.3 3.6-2.8 1.6-.6 3-1.4 3-1.8 0-.4 1.1-1.3 2.5-1.9 1.4-.6 2.4-1.6 2.3-2.1-.4-1.4 11.2-17.1 12.6-17.1.8 0 1.1-1.6.9-4.8-.1-2.6-.2-6-.2-7.6l-.1-2.9-4.2 3.5c-3.9 3.2-9.8 11.5-11.4 16-.4 1-1.1 1.8-1.8 1.8-.6.1-2.9 1.9-5.1 4-2.2 2.2-4.7 4-5.7 4-1.2 0-1.8.8-1.8 2.4 0 1.3-1 3.6-2.2 5.2-1.3 1.6-2.4 4.4-2.5 6.4-.1 3.7 1.7 12 2.8 12 .5 0 .7.7 1.1 4.9.2 1.5.5 1.7 2.1.7 1.5-.8 2.1-.8 2.4.1.3.7 1.1 1.3 1.9 1.3.8 0 1.5-.6 1.5-1.3.1-.6.2-1.7.4-2.2.1-.6.3-1.5.3-2.1.3-1.5 12.6-1.8 15.2-.4 3.1 1.7 11 2.9 11 1.7 0-1.1 9-.4 18 1.4 7.9 1.5 9.4 1.7 10.5 1 1.6-.9 3.8-1 4.9-.3 1.1.7 1.6.8 7 1.1 3.3.1 2.8 1.3-.7 1.7-5.8.8-6.9 1.1-7.8 2.5-.7 1.1-.9 1.1-.9-.4 0-1-.4-1.5-1-1.2-.5.3-1 0-1-.7 0-.9-.3-.9-1 .2-.6 1-1 1.1-1 .2 0-1.6-1.5-1.5-3.4.3-.8.8-1.7 1.1-2 .6-.3-.5-2.5.1-4.8 1.3-3.7 1.8-4 2.1-2 2.4 2.6.4 3.1 4.2.7 6.2-1.3 1-1.3 1.6 0 4 .8 1.5 1.2 3 .9 3.2-.6.7 5.9 3.8 7.8 3.8.8 0 2 .6 2.6 1.2.7.7 4.1 1.4 7.5 1.6 3.4.1 8.8.4 11.9.5 3.2.2 5.2-.1 4.5-.5-.8-.5-.7-.8.5-.8.9 0 2.9-1.1 4.4-2.5 3.1-2.9 4.9-3.3 4-.9-.6 1.5-.4 1.5 1.1.3 1-.8 2.1-1.8 2.4-2.3.4-.5 1.7-.1 3 .9 2.3 1.6 2.3 1.7.2 1.1-1.2-.4-2.4-.3-2.7.2-.3.6.4 1.2 1.7 1.6 1.4.4 1.8.9 1.1 1.3-.8.6-.5 1.4.9 2.8 1.1 1.1 1.7 1.4 1.3.7-.4-.6-.2-1.2.3-1.2.6 0 1.1.9 1.1 2.1 0 1.1-.4 1.8-.8 1.5-.4-.2-1.3.4-2 1.5s-.8 1.9-.2 1.9c.5 0 .7.7.3 1.6-.4 1.1-.8 1.2-1.3.4-.8-1.3-2.4.4-3.4 3.7-.9 2.7-1.9 2.9-3.9.8-1-.9-1.7-1.1-1.9-.4-.2.7-1.2.7-3.2-.1-2.4-.9-3.2-.7-4.7.6-1.1 1-1.9 2.3-1.9 3.1 0 .7-.6 1.3-1.2 1.3-.9 0-.8.4.2 1 1.3.8 1.2 1-.2 1-2 0-2.4-1.5-.8-2.5 2-1.2 1-2.1-2.2-2.1-1.8.1-3.2.4-3 .8.1.5.2 1.3.2 1.9 0 .5.4.8.9.5.5-.3 1.1.3 1.4 1.4.3 1.3 0 2-.9 2-.8 0-1.4.6-1.4 1.4 0 .8-.7 1.6-1.5 2-.8.3-1.5.1-1.5-.3 0-.5.6-1.2 1.3-1.4.6-.3.7-.6.1-.6-.5-.1-2 .8-3.1 1.8-2.1 2-3.8 2.2-6.2.7-1-.7-1.2-.3-.6 1.5.6 2 .5 2.2-.6 1.2-1.9-1.9-3.9-1.6-3.9.5 0 1-.7 1.9-1.5 1.9s-1.5-.4-1.5-.9c0-.4.4-.8.8-.8 1.7 0 .8-3-1.1-3.6-2.7-.8-4.4 1.1-2.7 3.1 1 1.2 1 1.5-.4 1.5-.9 0-1.6.4-1.6 1 0 .5-.6 1-1.4 1-.8 0-1.7.6-1.9 1.2-.4 1-.6 1-.6 0-.1-.8-.9-1-2.6-.6-1.6.4-2.5.2-2.5-.6 0-.6-.4-.9-.9-.6-.4.3-.6-.7-.5-2.2.4-2.6.3-2.5-1.1.6-1.5 3.2-4 4.6-2.8 1.6.5-1.3.2-1.5-1.5-.9-1.6.5-2.2.2-2.2-.9 0-2.3-2.1-2-2.7.4-.6 2.3-1 2.4-4.6.7-1.5-.6-2.7-1.9-2.6-2.7 0-.9.3-1 .5-.4.6 1.5 4.4.5 4.4-1.1 0-1.7-3.6-2.5-5-1.1-1 .8-1 .6-.1-1.1 1.4-2.7.4-3-1.5-.6-1.3 1.7-1.4 1.7-.8-.2.5-1.8.4-1.8-.8-.4-1.5 1.8-4.2 1.4-3.1-.4.4-.7-.1-.6-1 .2-.9.7-1.4 1.7-1.1 2.2.3.5-.4 1.3-1.6 1.7-2 .7-2 .9-.6 2.1.9.8 1.9 1.1 2.3.7.3-.3.1-.6-.6-.6-.9 0-.8-.4.3-1.5 2.4-2.4 3.7-1.9 2.4.9-.8 1.9-.8 2.8.3 3.9.8.7 2 1.2 2.8.9.9-.3 1.1.2.6 1.7-.5 1.8-.2 2.1 2.2 2.1 2.2 0 2.5.2 1.3 1-1.3.8-1.3 1 .2 1 .9 0 1.9-.6 2.2-1.3.3-.6.3-.2 0 1-.3 1.3-.1 2.3.5 2.3s1.1-.5 1.1-1c0-1.2 1-1.3 2.8-.2 1.7 1.1.5 4.2-1.6 4.2-1.2 0-.9.5.8 1.6 1.4 1 3.1 2.4 3.8 3.2.7 1 1.2 1.1 1.2.4 0-2 2.3-1.3 4.9 1.3 1.3 1.4 2.9 2.5 3.7 2.5.8 0 1.4.4 1.4.9s1 1.3 2.3 1.6c4 1.2 7.7 3 7.7 3.7 0 .5.5.8 1.1.8 2.5 0 8.7 6.3 9.2 9.3.6 3.5-3.5 11.3-5.3 10.2-.6-.4-1-.2-1 .4 0 .5.4 1.1 1 1.3.5.2 1.1 1.2 1.3 2.3.1 1.1.6 2.5 1 3.2.4.6.3 2.3-.3 3.8-.9 2.3-.8 2.6.4 2.2.9-.4 1.8-.2 2.1.4.4.5-.4 1.3-1.7 1.8l-2.3 1h2.3c1.2.1 2.2.6 2.2 1.2 0 .5-.4.8-.9.5-.5-.3-1.2.1-1.5 1-.9 2.2-.8 2.6.5 1.8.6-.3.3.5-.6 2-1 1.4-1.3 2.6-.7 2.6.6 0 1.4-.5 1.7-1 .3-.5 1.1-1 1.7-1 .6 0 .1 1.1-1.1 2.4-1.5 1.6-2.1 3.3-1.9 5.1l.3 2.7 3.5-3.6c3.8-3.9 5-4.4 5-2.1 0 .8.8 1.5 1.8 1.5.9 0 1.3-.4.7-.8-.5-.4-1.1-1.6-1.3-2.6-.3-1.7-.2-1.7 1.2-.4 1.1 1.1 2.8 1.4 5.9 1.1 4.6-.5 4.4-.7 4.9 4.5.1 1 .8 1.9 1.5 1.9.6 0 1.1-.5 1-1.1-.1-.5.5-1.1 1.3-1.2.8 0 2.3-.2 3.3-.2 1.3-.2 1.7-.9 1.5-2.4-.3-2.4 4.1-5.6 5.2-3.7 1.2 1.9 4.5-.5 4.5-3.3.1-1.4-.3-2.5-.6-2.2-.4.2-1.1-.1-1.5-.7-.4-.7-.3-.9.3-.6.6.4 1.6 0 2.3-.8.7-.8.9-1.5.4-1.5-.4 0-.3-.5.3-1.1.6-.6.9-1.7.6-2.4-.2-.8.1-2.3.7-3.4.9-1.9.7-2.5-2-4.7-2.9-2.5-3-2.8-1.5-4.5 1.6-1.7 1.5-1.7-.7-1.3-2.3.5-2.3.5.2-1.1 1.4-.9 1.7-1.4.8-1.1-1.3.4-1.7 0-1.5-1.4.2-1.1.6-2.3 1-2.6.4-.4 0-1.2-.8-1.8-1.3-.9-1.9-3.2-2.4-9.4-.1-.7-.6-1-1.3-.6-.7.4-.8.3-.4-.5.4-.6 1.2-.9 1.7-.6.9.6 1 .2 1.1-6.8 0-2.3.6-4.9 1.2-5.7 2.6-3.5 4.7-8.2 4.6-10.3-.2-2.7 1-6.7 2-6.7.4 0 1.1-1.1 1.4-2.4.3-1.4 3.3-5.2 6.6-8.6 3.3-3.4 6-6.5 6-7 0-.4.9-.6 1.9-.3 1.5.4 2-.1 2.3-2.3.2-1.5.9-3 1.7-3.2 1.1-.4 1.3.5.7 4.4-.3 2.7-.9 6-1.2 7.4-.4 2.1.1 2.8 2.8 4.4 8 4.7 18.5 16.7 24.3 28 2.1 4 4.8 5.6 9.6 5.6 3.1 0 14.4 3.7 19.4 6.4 1.7.9 3.3 1.6 3.7 1.6.8 0 14.3 8 20.2 12.1 3.3 2.2 4.2 2.4 5.3 1.4 3-3.1 13.3-16.6 17.9-23.5 6.5-10 6.8-10.5 10.5-17.5 1.7-3.3 3.4-6.5 3.8-7 .4-.6 2.5-5.1 4.5-10 2.1-5 4.4-10.4 5.1-12 3.6-8 10-32.5 12-45.7 2-13 2-58.5 0-71.8-2.2-15.2-10.8-46.6-13.6-49.5-.5-.5-.9-1.5-.9-2.2 0-2.3-13.3-28.4-18-35.3-1-1.4-3.7-5.4-6-9-2.4-3.6-4.6-6.7-5-7-.3-.3-2.7-3.3-5.3-6.6-7-9.2-31.3-33.4-33.5-33.4-.4 0-1.8-1-3.2-2.3-6.3-5.7-21.7-16-32.5-21.6-3.8-2.1-7.9-4.2-9-4.9-4.2-2.4-19.1-8.3-28.5-11.4-31.8-10.5-61.8-13.7-96.5-10.3zm-73 71.5c-.3.5-1.1 1-1.6 1-.6 0-.7-.5-.4-1 .3-.6 1.1-1 1.6-1 .6 0 .7.4.4 1zm233 31.4c0 1.9-.6 4.1-1.4 4.8-1.2 1.1-1.3 1.1-.6-.1.6-1.1.4-1.3-.8-.8-2.2.8-3.1-.8-1.3-2.2 1.1-1 1.7-.8 2.5.6.6 1 1.1 1.3 1.1.8 0-.6-.7-2-1.5-3.2-1.4-2-1.3-2.2.2-2.6 1-.3 1.8-.5 1.8-.6v3.3zm-.6 10.2c.7-.5 1.1.2 1.1 1.8 0 3.4-3.6 5.5-4.5 2.6-.8-2.6.4-6.8 1.5-5 .4.7 1.3.9 1.9.6zm-48.6 151.7c.8 2.1-2.3 8.6-3.9 8-.9-.3-1.4.2-1.4 1.5 0 1.2-.4 2.3-.9 2.6-1.2.8-1.9-2.5-1-4.9.4-1.1.8-1.6.9-1 0 .5.7-.1 1.4-1.5.8-1.4 1.2-2.9.9-3.4-.4-.5-.1-.6.5-.2.7.4 1.2.1 1.2-.8 0-1.9 1.6-2.1 2.3-.3zm-38.1 9.4c-.6.3-.9 1-.5 1.6.4.7-.2.5-1.3-.3-1-.8-2-1.5-2.2-1.6-.2-.1 1-.1 2.5-.1s2.2.2 1.5.4zm12.2 20.2c.3.5-.1 1.4-.8 2-1.6 1.3-3.2-.2-2.1-1.9.8-1.2 2.2-1.3 2.9-.1zM350 390.6c0 .8-1.9 1.3-2.4.6-.3-.5.1-.9.9-.9s1.5.2 1.5.3zm2.4.3c.3.5-.1 1.1-.9 1.4-.9.4-1.2.1-.8-.9.6-1.6 1-1.7 1.7-.5zm-34.7 18.3c-.3.8-.6.5-.6-.6-.1-1.1.2-1.7.5-1.3.3.3.4 1.2.1 1.9zM298 420.5c-.7.8-1.6 1.5-2.1 1.5s-.6-.7-.3-1.5c.4-.8 1.3-1.5 2.1-1.5 1.3 0 1.3.3.3 1.5z"/><path d="M195.5 151.1c-.9 1.4-.2 2 1.4 1 .8-.6.9-1.1.3-1.5-.6-.3-1.4-.1-1.7.5zM197.3 210.3c-.9 2-.8 2.6.8 3.8 1.1.7 1.7 1.9 1.5 2.6-.3.7.8 1.9 2.4 2.7 3 1.4 3 1.4 3-1.3 0-2-.5-2.7-2-2.8-2.9-.2-5-2.7-4.3-5.2.7-2.8-.1-2.7-1.4.2zM364.5 211.7c-1.6.1-6.7 1-11.2 1.9-6.3 1.3-8.4 2.1-8.8 3.5-.4 1.1-1.2 1.9-1.8 1.9-.7 0-.6.4.3 1 1.3.8 1.3 1-.2 1.1-1 .1-2.4.2-3 .3-.7 0-1.3.8-1.3 1.6 0 1.8-2.6 4-3.8 3.3-.5-.3-1.4.2-2 1-.7.8-2.1 1.7-3.2 1.9-2.8.5-2.5 2.1 3 14 1.5 3.3 3.6 12 4 16.7.1 1.3 1.1 3.2 2.3 4.2 1.2.9 2.2 2.2 2.2 2.8 0 .6.8 1.1 1.8 1.1s2.2.3 2.6.7c.4.5 1.7.9 2.9 1 1.2.1 5 .8 8.4 1.6 3.4.8 7.9 1.3 10 1.2 4.6-.3 9.3-2.1 9.3-3.5 0-.5 1.8-1 4-1s4-.5 4-1c0-.6 1-1 2.3-1 2-.1 2-.2.5-1.1-2.4-1.3-2.3-2.9.2-2.9 1.2 0 2.1-.7 2.2-1.8 0-.9.2-2.2.3-2.7.2-.6.3-1.5.4-2 0-.6 1.8-.9 4-.7 4.4.4 10.1-2 10.1-4.4 0-.8.7-1.7 1.5-2 .8-.4 1.2-1 1-1.5-.3-.4-.8-2.3-1-4.1-.2-1.8-.7-6-1.1-9.3-.4-3.3-1.3-7-2.2-8.3-1.2-1.8-1.2-2.2-.1-2.3.8 0 .3-.5-1.1-1-1.4-.6-2.8-1.7-3.3-2.5-.4-.8-1.4-1.4-2.1-1.4-.8 0-1.6-.6-1.9-1.4-.4-.9-1.4-1.2-2.6-.9-1.2.3-2.1.1-2.1-.5 0-2.5-14.8-4.6-24.5-3.5zm2.5 30.2c0 .6-.4 1.3-1 1.6-.5.3-1-.1-1-.9 0-.9.5-1.6 1-1.6.6 0 1 .4 1 .9zm-5.2 3.6c1.4 3.1 1.5 3.5.4 3.5-2 0-4.3-2.7-3.6-4.3.9-2.4 1.9-2.1 3.2.8zM389 249c0 .5-.5 1-1.1 1-.5 0-.7-.5-.4-1 .3-.6.8-1 1.1-1 .2 0 .4.4.4 1zm-3 .4c0 .2-.9.6-2 .9-1.1.3-2 .1-2-.4s.9-.9 2-.9 2 .2 2 .4zm11.5 3.6c.3.5.2 1-.4 1-.5 0-1.3-.5-1.6-1-.3-.6-.2-1 .4-1 .5 0 1.3.4 1.6 1zM283.8 215.2c-2.3.4-5.4 1.2-6.8 1.7-2.2.9-6.5 1.7-13.2 2.5-1 .1-2.1.5-2.4.9-.4.4-1.8.7-3 .7-3 0-7.5 2.1-6.8 3.1.3.5-.4.9-1.5.9-1.2 0-2.1.4-2.1 1 0 .5.7.7 1.5.4 1.1-.5 1.3-.2.9 1-.6 1.5-.9 1.5-3 .1-1.2-.8-2.5-1.1-2.8-.6-.8 1.2 5.4 3.7 6.2 2.5.4-.5 1.8-1 3.2-1.1 1.4-.1 4.2-.3 6.4-.6 4.5-.5 10.8 1.1 9.9 2.6-.4.6-.1.7.6.2.7-.4 2.3-.2 3.6.5 3.3 1.8 1.6 3.1-7.5 6-14.4 4.5-18.5 7.6-18.5 14.1 0 3.1.4 3.9 1.8 3.9.9 0 2.5-.9 3.4-2 1-1.1 2.6-2 3.6-2s2.9-1.2 4.2-2.8l2.3-2.7 1.1 2.7c1.2 3.1 4.3 5.3 8.7 6.3 2.6.5 3.7.1 5.8-2 1.4-1.4 2.6-3.7 2.6-5 0-1.4.3-2.5.8-2.5 1.4 0 4.3 4.2 3.8 5.5-.2.7 0 1.7.6 2.3 1.4 1.4.3 1.8-6.4 2.7-2.7.3-4.8 1.2-4.8 1.8 0 .7-.4.6-1-.3-.7-1.1-1-1.1-1-.2 0 .7-.7 1.2-1.6 1-1-.2-1.9.3-2.2 1.1-.3 1 0 1.1.9.5 1.2-.6 1.2-.5.1.8-.8.9-2.3 1.8-3.5 2-1.2.2-2.2.8-2.2 1.5 0 .6-.3 1.5-.7 1.9-1.4 1.3-.8 2.4 1.2 2.4 1.1 0 2 .4 2 .8s4.2.4 9.3-.1c7-.7 9.7-1.4 11.4-2.9 1.2-1.1 2.6-1.7 3.2-1.4.5.4 1.5-.3 2.1-1.4.6-1.1 1.4-1.9 1.8-1.8 1.2.4 6.2-3.4 5.6-4.3-.3-.5.2-.6 1-.3.9.3 1.6.1 1.6-.5s.9-2 1.9-3c2.8-2.8 4.3-9.4 3.5-14.7-.4-2.9-.3-4.4.5-4.4 1.5 0 1-4.8-.6-5.4-.7-.3-1.3-1-1.3-1.6 0-.6.5-.8 1-.5.6.4.9-.7.9-2.7-.1-2.3-.3-2.6-.6-1.1-.5 2.8-2 3-2.8.3-.3-1.1-1.1-2-1.6-2s-.9-.7-.9-1.5c0-.9-.9-1.5-2.5-1.5-1.4 0-2.5-.5-2.5-1.1 0-.5-.4-.7-1-.4-.5.3-1 .2-1-.3 0-1.3-7.8-1.9-13.2-1zM271 245.6c0 .8-.4 1.2-1 .9-.5-.3-1-1-1-1.6 0-.5.5-.9 1-.9.6 0 1 .7 1 1.6zM187.7 218.7c-.4.3-.7 1.1-.7 1.7 0 .6.5.5 1.2-.2.6-.6.9-1.4.7-1.7-.3-.3-.9-.2-1.2.2z"/><path d="M265.8 229.7c.7.3 1.6.2 1.9-.1.4-.3-.2-.6-1.3-.5-1.1 0-1.4.3-.6.6zM177.9 240.7c-.9 1.1-1.4 4.3-1.4 9.9 0 12.1 3.2 13.8 4.9 2.7.3-2.4 1.4-5.8 2.3-7.7 1.3-2.9 1.4-3.8.3-5.1-1.6-2-4.4-1.9-6.1.2zM206 258.9c0 2.5.6 2.7 1.3.6.4-.8.2-1.7-.3-2-.6-.4-1 .3-1 1.4zM419.7 258.6c-.4.4-.7 4.3-.7 8.8 0 9.2 1.8 9.5 2.6.5.6-5.4-.5-10.6-1.9-9.3zM193.9 263.6c-2.3 2.5-2.4 2.6-.5 4 3.7 2.7 5.1 1.7 4.6-3.1-.3-3.4-1.5-3.6-4.1-.9zM205 264.5c.1 2.6.2 2.8 1.1 1.2.8-1.4.8-2.2 0-3-.8-.8-1.1-.3-1.1 1.8zM185.1 268.9c-1 1.6 1 9.3 2.9 11.6 2.4 2.8 4 1.7 4-2.6 0-7.5-4.5-13.4-6.9-9zM329 378.1c0 .5.5.7 1 .4.6-.3 1-.8 1-1.1 0-.2-.4-.4-1-.4-.5 0-1 .5-1 1.1zM382 394c-.9.6-1 1-.3 1 .6 0 1.5-.5 1.8-1 .8-1.2.4-1.2-1.5 0zM334.1 396.6c0 1.1.3 1.4.6.6.3-.7.2-1.6-.1-1.9-.3-.4-.6.2-.5 1.3zM189.5 410c-.4.6-.8 5.1-.8 9.8-.1 6.6.5 10.3 2.2 15.2 1.2 3.6 2.7 6.9 3.2 7.5.5.5.9 1.7.9 2.6 0 1.5 3.6 10.1 9.1 21.6 1.1 2.3 2.7 4.7 3.5 5.3.7.7 1.4 1.9 1.4 2.6 0 1.9 7.9 9.4 9.9 9.4 1.4-.1 1.4-.2-.1-1.1-1-.5-1.5-1.6-1.2-2.4.4-.9 0-1.5-1-1.5s-1.3-.5-.9-1.7c.4-1 .2-1.4-.5-.9-.6.3-1.3.2-1.7-.4-.3-.5-.1-1 .4-1 .6 0 1.1-.5 1.1-1 0-.6-.7-1-1.6-1-1.3 0-1.4-.3-.5-1.4.9-1.1.7-1.5-1.1-2-1.9-.5-2-.8-.8-1.6 1.2-.7 1.2-1 .1-1-.7 0-1.1-.6-.8-1.5.4-.8.2-1.7-.3-2-.5-.3-.7-1.2-.3-2 .3-.8 0-1.5-.6-1.5s-.8-.7-.5-1.5c.4-.8.1-1.5-.5-1.5s-1.6-1.2-2.2-2.7c-2.2-5.8-8.8-19.1-9.8-19.8-1.5-.8-1.4-9.1.1-11.4.9-1.5.8-2.6-.5-5.2-2.9-6-5.4-9.2-6.2-7.9zM386.4 417.4c-.3 1.4-.3 4.1 0 5.9 1.9 10.3 3.6 22.9 3.6 27.9 0 5.3-1.7 15.8-3.9 23.8-.6 1.9-2 7.5-3.1 12.5-1.2 4.9-2.8 10.9-3.6 13.3-.8 2.3-1.4 5.6-1.4 7.3 0 3.4-3.3 10.5-5.2 11.2-1 .4-1 .6 0 .6.7.1 3.8-2.5 7-5.7 5.1-5.1 6.2-7 9.1-15.3 2-5.6 4.3-10.3 5.8-11.7 1.3-1.2 1.9-2.2 1.2-2.2-1.8 0 .9-12.1 4.1-18.1.4-.8.4-3.5 0-6-.5-2.4-.4-8.2.1-12.8.5-4.6.7-9.3.3-10.5-1.5-4.8-8.8-18.6-11-20.7l-2.3-2.2-.7 2.7zM213.7 463.1c.4 1.3.8 1.8 1.1 1 .2-.7-.1-1.8-.6-2.3-.8-.8-.9-.4-.5 1.3zM215.3 468.7c.5 2.4 5 11.6 6.1 12.4.5.4.5 1.2.2 1.8-.4.6-.4 1.1.1 1.1.4 0 1.4 1.3 2.1 3 .8 1.6 1.7 2.9 2 2.8 1.1-.2 6.2 2.4 6.2 3.2 0 1.3 9.8 10.4 13.8 12.7 4.4 2.7 5.6 2.9 4.8.7-.3-.8-.2-1.2.4-.9.6.3 1 .1 1-.5s-1.2-1.5-2.6-2c-1.4-.6-2.2-1.4-1.9-2 .3-.6-.1-.7-.9-.4-1.1.4-1.6 0-1.6-1 0-.9-.7-1.6-1.6-1.6-.8 0-1.2-.5-.9-1 .3-.6.1-1-.5-1s-2.3-1.1-3.8-2.5-3.3-2.5-4-2.5c-.7 0-2-.6-2.7-1.4-1.2-1.2-1.2-1.5.1-2 1.2-.5 1.3-1 .3-2.7l-1.1-2.2-1.7 2.1-1.6 2.2-2.8-3.4c-1.5-1.9-2.7-4-2.7-4.6 0-1.6-4.8-10.7-6-11.5-.6-.4-.9.2-.7 1.2zM358 482.5c-1 1.2-1 1.9-.2 2.7 1.4 1.4 1.7 1.1 2.6-2 .8-2.5-.5-2.9-2.4-.7zM342 484.9c0 .5.9 1.1 1.9 1.4 1.4.3 1.8.1 1.4-.9-.6-1.5-3.3-1.9-3.3-.5zM200.8 491.3c2.1 2.2 2.1 2.6.9 5.7-2.4 5.6-1.4 6.8 5.6 6.7 3.4 0 7.3.3 8.6.7l2.4.8-1.9-2.6c-1.1-1.4-2.5-2.6-3.1-2.6-.7 0-1.3-.6-1.3-1.3 0-.6-1.6-2.8-3.5-4.7-1.9-1.9-3.5-3.8-3.5-4.2 0-.4-1.4-.8-3.2-.8h-3.1l2.1 2.3zM201.5 507c.3.5 1.5 1 2.6 1s1.7-.5 1.4-1c-.3-.6-1.5-1-2.6-1s-1.7.4-1.4 1zM221.7 509.1c.7.7 1.5 1 1.8.7.3-.3-.2-.9-1.2-1.2-1.4-.6-1.5-.5-.6.5z"/></svg>